<?xml version="1.0" encoding="utf-8"?>
<!-- Svg Vector Icons : http://www.onlinewebfonts.com/icon -->
<!DOCTYPE svg PUBLIC "-//W3C//DTD SVG 1.1//EN" "http://www.w3.org/Graphics/SVG/1.1/DTD/svg11.dtd">
<svg version="1.1" xmlns="http://www.w3.org/2000/svg" xmlns:xlink="http://www.w3.org/1999/xlink" x="0px" y="0px" viewBox="0 0 1000 1000" enable-background="new 0 0 1000 1000" xml:space="preserve">
<metadata> Svg Vector Icons : http://www.onlinewebfonts.com/icon </metadata>
<g><g transform="matrix(1 0 0 -1 0 480)"><path d="M978.3-455.2l-268.2,272c60.9,73.6,91.3,158.5,91.3,254.9c0,109.1-38.4,202.3-115.1,279.7c-76.7,77.4-170,116-279.7,116c-109.7,0-203.2-38.7-280.6-116C48.7,274.1,10,180.5,10,70.8s38.7-203.2,116-280.6c77.4-77.4,171.2-116,281.6-116c98.9,0,185.2,33,258.7,98.9L936.5-497c14-14,28.2-14,42.8,0S993.6-469.1,978.3-455.2z M406.7-263c-92,0-170.9,32.7-236.9,98c-66,65.3-98.9,144.3-98.9,236.9c0,92.6,33,171.5,98.9,236.9s144.9,98,236.9,98c92,0,170.6-32.7,235.9-98c65.3-65.3,98-144.3,98-236.9c0-92.6-32.7-171.5-98-236.9C577.2-230.4,498.6-263,406.7-263z M557.9,102.2H436.1V224c0,8.9-2.9,16.2-8.6,21.9c-5.7,5.7-12.7,8.6-20.9,8.6c-8.2,0-15.5-2.9-21.9-8.6c-6.3-5.7-9.5-13-9.5-21.9V102.2H253.5c-7.6,0-14.6-2.9-20.9-8.6s-9.5-13-9.5-21.9c0-8.9,3.2-16.2,9.5-21.9s13.3-8.6,20.9-8.6h121.8V-80.4c0-8.9,3.2-16.2,9.5-21.9c6.3-5.7,13.6-8.6,21.9-8.6c8.2,0,15.2,2.9,20.9,8.6c5.7,5.7,8.6,13,8.6,21.9V41.4h121.8c8.9,0,16.2,2.9,21.9,8.6s8.6,13,8.6,21.9c0,8.9-2.9,16.2-8.6,21.9S566.8,102.2,557.9,102.2z"/></g></g>
</svg>