<?xml version="1.0" encoding="utf-8"?>
<!-- Svg Vector Icons : http://www.onlinewebfonts.com/icon -->
<!DOCTYPE svg PUBLIC "-//W3C//DTD SVG 1.1//EN" "http://www.w3.org/Graphics/SVG/1.1/DTD/svg11.dtd">
<svg version="1.1" xmlns="http://www.w3.org/2000/svg" xmlns:xlink="http://www.w3.org/1999/xlink" x="0px" y="0px" viewBox="0 0 1000 1000" enable-background="new 0 0 1000 1000" xml:space="preserve">
<metadata> Svg Vector Icons : http://www.onlinewebfonts.com/icon </metadata>
<g><g transform="translate(0.000000,512.000000) scale(0.100000,-0.100000)"><path d="M3680.5,5006.1c-612.5-65.1-1278.6-300.5-1774.4-625.9C575.9,3501.7-109.4,1935.9,156.7,372.1C447.6-1339.1,1787.5-2650.3,3514-2908.7c285.2-44,830.7-44,1110.2-1.9c681.4,103.3,1276.7,350.3,1799.2,744.6c114.9,86.1,220.1,166.5,235.4,176.1c21.1,15.3,323.5-279.5,1406.9-1372.4c1502.6-1512.1,1416.4-1437.5,1596.4-1403c91.9,17.2,208.6,135.9,227.8,229.7c30.6,166.5,49.8,143.6-853.7,1060.4c-461.3,469-1081.5,1094.9-1376.2,1389.6c-296.7,294.8-537.9,545.5-537.9,557c0,11.5,26.8,55.5,59.3,95.7c319.7,396.2,624,1026,742.7,1538.9c145.5,627.8,137.8,1313.1-19.1,1927.5c-321.6,1261.4-1246.1,2291.2-2457.7,2739.1c-266,99.5-438.3,145.5-727.3,195.2C4457.7,5013.8,3935.1,5032.9,3680.5,5006.1z M4633.7,4364.9c901.5-160.8,1707.4-689.1,2222.2-1460.5c1039.4-1554.3,604.9-3657.9-970.4-4687.6c-1167.6-761.8-2695-715.9-3809.1,118.7c-491.9,369.4-890.1,878.6-1108.3,1420.3C799.8,171.1,732.8,483.1,715.6,919.5c-36.4,939.8,292.9,1789.7,959,2476.8c428.8,440.2,970.5,758,1552.3,907.3c166.5,42.1,262.2,61.3,535.9,97.6C3891.1,4418.5,4461.5,4395.6,4633.7,4364.9z"/><path d="M2432.5,1329.2c-26.8-11.5-68.9-38.3-91.9-61.2c-149.3-137.8-130.2-354.1,40.2-480.4c53.6-40.2,61.3-40.2,1688.2-40.2c1619.3,0,1634.6,0,1686.3,40.2c99.5,74.6,132.1,135.9,132.1,254.6c0,90-9.6,122.5-51.7,178c-105.3,137.8-3.8,130.2-1770.5,128.2C3060.4,1348.3,2463.2,1340.6,2432.5,1329.2z"/></g></g>
</svg>